<svg width="63" height="63" viewBox="0 0 63 63" fill="none" xmlns="http://www.w3.org/2000/svg">
<rect width="63" height="63" rx="31.5" fill="#FF8067"/>
<path d="M10.819 36V26.939H12.678V36H10.819ZM22.2402 36.221C21.3735 36.221 20.6109 36.0217 19.9522 35.623C19.2935 35.2243 18.7779 34.6697 18.4052 33.959C18.0412 33.2483 17.8592 32.4163 17.8592 31.463C17.8592 30.5097 18.0412 29.682 18.4052 28.98C18.7779 28.2693 19.2935 27.7147 19.9522 27.316C20.6109 26.9173 21.3735 26.718 22.2402 26.718C23.2195 26.718 24.0602 26.965 24.7622 27.459C25.4729 27.9443 25.9842 28.616 26.2962 29.474L24.5412 30.111C24.3592 29.5997 24.0689 29.2053 23.6702 28.928C23.2802 28.642 22.8035 28.499 22.2402 28.499C21.7289 28.499 21.2825 28.6203 20.9012 28.863C20.5199 29.097 20.2252 29.435 20.0172 29.877C19.8179 30.319 19.7182 30.8477 19.7182 31.463C19.7182 32.0783 19.8179 32.6113 20.0172 33.062C20.2252 33.504 20.5199 33.8463 20.9012 34.089C21.2825 34.323 21.7289 34.44 22.2402 34.44C22.8035 34.44 23.2802 34.297 23.6702 34.011C24.0689 33.725 24.3592 33.3307 24.5412 32.828L26.2962 33.465C25.9842 34.3143 25.4729 34.986 24.7622 35.48C24.0602 35.974 23.2195 36.221 22.2402 36.221ZM35.3824 36.221C34.5157 36.221 33.7531 36.0217 33.0944 35.623C32.4357 35.2243 31.9201 34.6697 31.5474 33.959C31.1834 33.2483 31.0014 32.4207 31.0014 31.476C31.0014 30.5227 31.1834 29.6907 31.5474 28.98C31.9201 28.2693 32.4357 27.7147 33.0944 27.316C33.7531 26.9173 34.5157 26.718 35.3824 26.718C36.2577 26.718 37.0247 26.9173 37.6834 27.316C38.3421 27.706 38.8534 28.2563 39.2174 28.967C39.5901 29.6777 39.7764 30.514 39.7764 31.476C39.7764 32.4293 39.5901 33.2613 39.2174 33.972C38.8447 34.6827 38.3291 35.2373 37.6704 35.636C37.0117 36.026 36.2491 36.221 35.3824 36.221ZM35.3824 34.44C35.9024 34.44 36.3487 34.3187 36.7214 34.076C37.0941 33.8333 37.3844 33.491 37.5924 33.049C37.8004 32.5983 37.9044 32.074 37.9044 31.476C37.9044 30.8693 37.8004 30.345 37.5924 29.903C37.3844 29.4523 37.0941 29.1057 36.7214 28.863C36.3487 28.6203 35.8981 28.499 35.3694 28.499C34.8667 28.499 34.4247 28.6203 34.0434 28.863C33.6621 29.097 33.3674 29.435 33.1594 29.877C32.9601 30.319 32.8604 30.852 32.8604 31.476C32.8604 32.0913 32.9601 32.62 33.1594 33.062C33.3674 33.504 33.6621 33.8463 34.0434 34.089C34.4247 34.323 34.8711 34.44 35.3824 34.44ZM44.9643 36V26.939H46.8753L50.9573 33.556H50.4763V26.939H52.3483V36H50.4243L46.3553 29.37H46.8233V36H44.9643Z" fill="#3B3736"/>
</svg>
