<svg width="246" height="48" viewBox="0 0 246 48" fill="none" xmlns="http://www.w3.org/2000/svg">
<path fill-rule="evenodd" clip-rule="evenodd" d="M12.5118 21.7313L0 0.0628281H25.0168L37.5287 21.7313H12.5118ZM144.149 24C144.149 17.2145 139.858 13.2443 134.596 13.2443C129.335 13.2443 125.043 17.2145 125.043 24C125.043 30.7855 129.335 34.7557 134.596 34.7557C139.858 34.7557 144.149 30.7855 144.149 24ZM114.335 24C114.335 12.602 123.287 3.83482 134.596 3.83482C145.905 3.83482 154.857 12.602 154.857 24C154.857 35.398 145.905 44.1652 134.596 44.1652C123.287 44.1652 114.335 35.398 114.335 24ZM72.3379 30.1842H65.1424H65.1356L68.7367 20.3578L72.3379 30.1842ZM75.4266 38.7668L76.9982 43.0103H88.6764L72.0646 4.98283H65.6959L48.9816 43.0103H60.4274L61.9991 38.7668H75.4266ZM78.5223 4.98966L94.1706 42.9693H100.539L116.413 4.98966H104.967L97.5394 25.7083L90.2004 4.98966H78.5223ZM158.547 4.94184V43.0103H158.554H168.797V30.8743C168.797 28.6125 168.749 26.3028 168.701 24.041L187.117 43.0103H192.379V4.98284H182.224V17.5425V17.5447C182.224 19.799 182.224 22.1079 182.272 24.369L163.303 4.94184H158.547ZM207.515 33.7853H210.651C216.002 33.7853 221.079 31.0178 221.079 24C221.079 16.9822 216.049 14.2147 210.651 14.2147H207.515V33.7853ZM196.991 43.0035V4.98283H210.651C222.466 4.98283 231.787 12.5952 231.787 23.9932C231.787 35.3912 222.466 43.0035 210.651 43.0035H196.991ZM235.476 4.98283H246V43.0103H235.476V4.98283ZM12.505 26.2687L0 47.9372H25.0168L37.5287 26.2687H12.505Z" fill="#EA520D"/>
</svg>
